<?xml version="1.0" encoding="UTF-8" standalone="no"?>
<!DOCTYPE svg PUBLIC "-//W3C//DTD SVG 1.1//EN"
 "http://www.w3.org/Graphics/SVG/1.1/DTD/svg11.dtd">
<!-- Generated by graphviz version 2.34.0 (20141125.1709)
 -->
<!-- Title: G Pages: 1 -->
<svg width="502pt" height="384pt"
 viewBox="0.00 0.00 502.00 384.00" xmlns="http://www.w3.org/2000/svg" xmlns:xlink="http://www.w3.org/1999/xlink">
<g id="graph0" class="graph" transform="scale(1 1) rotate(0) translate(4 380)">
<title>G</title>
<polygon fill="white" stroke="white" points="-4,4 -4,-380 498,-380 498,4 -4,4"/>
<g id="clust1" class="cluster"><title>cluster_Global</title>
<path fill="none" stroke="gray" d="M20,-8C20,-8 474,-8 474,-8 480,-8 486,-14 486,-20 486,-20 486,-356 486,-356 486,-362 480,-368 474,-368 474,-368 20,-368 20,-368 14,-368 8,-362 8,-356 8,-356 8,-20 8,-20 8,-14 14,-8 20,-8"/>
<text text-anchor="middle" x="247" y="-355.2" font-family="Times,serif" font-size="11.00" fill="gray">Global</text>
</g>
<g id="clust2" class="cluster"><title>cluster_\Radar</title>
<path fill="none" stroke="gray" d="M28,-16C28,-16 466,-16 466,-16 472,-16 478,-22 478,-28 478,-28 478,-328 478,-328 478,-334 472,-340 466,-340 466,-340 28,-340 28,-340 22,-340 16,-334 16,-328 16,-328 16,-28 16,-28 16,-22 22,-16 28,-16"/>
<text text-anchor="middle" x="247" y="-327.2" font-family="Times,serif" font-size="11.00" fill="gray">Radar</text>
</g>
<g id="clust3" class="cluster"><title>cluster_\Radar\Connect</title>
<path fill="none" stroke="gray" d="M36,-24C36,-24 458,-24 458,-24 464,-24 470,-30 470,-36 470,-36 470,-300 470,-300 470,-306 464,-312 458,-312 458,-312 36,-312 36,-312 30,-312 24,-306 24,-300 24,-300 24,-36 24,-36 24,-30 30,-24 36,-24"/>
<text text-anchor="middle" x="247" y="-299.2" font-family="Times,serif" font-size="11.00" fill="gray">Connect</text>
</g>
<!-- \\Radar\\Connect\\Entity -->
<g id="node1" class="node"><title>\\Radar\\Connect\\Entity</title>
<polygon fill="none" stroke="black" points="116,-230 32,-230 32,-194 116,-194 116,-230"/>
<text text-anchor="start" x="40" y="-215.2" font-family="Courier,monospace" font-size="11.00">«abstract»</text>
<text text-anchor="start" x="53.5" y="-203.2" font-family="Courier,monospace" font-size="11.00">Entity</text>
</g>
<!-- \\Radar\\Connect\\Node -->
<g id="node2" class="node"><title>\\Radar\\Connect\\Node</title>
<polygon fill="none" stroke="black" points="264,-176 210,-176 210,-140 264,-140 264,-176"/>
<text text-anchor="middle" x="237" y="-155.2" font-family="Courier,monospace" font-size="11.00">Node</text>
</g>
<!-- \\Radar\\Connect\\Node&#45;&gt;\\Radar\\Connect\\Entity -->
<g id="edge1" class="edge"><title>\\Radar\\Connect\\Node&#45;&gt;\\Radar\\Connect\\Entity</title>
<path fill="none" stroke="black" d="M209.774,-166.796C187.058,-174.415 153.549,-185.655 125.627,-195.02"/>
<polygon fill="none" stroke="black" points="124.378,-191.747 116.01,-198.245 126.604,-198.383 124.378,-191.747"/>
</g>
<!-- \\Radar\\Connect\\Group -->
<g id="node3" class="node"><title>\\Radar\\Connect\\Group</title>
<polygon fill="none" stroke="black" points="437,-284 383,-284 383,-248 437,-248 437,-284"/>
<text text-anchor="middle" x="410" y="-263.2" font-family="Courier,monospace" font-size="11.00">Group</text>
</g>
<!-- \\Radar\\Connect\\Group&#45;&gt;\\Radar\\Connect\\Node -->
<g id="edge2" class="edge"><title>\\Radar\\Connect\\Group&#45;&gt;\\Radar\\Connect\\Node</title>
<path fill="none" stroke="black" d="M382.871,-253.17C374.75,-248.918 365.868,-243.99 358,-239 324.221,-217.577 319.503,-206.852 286,-185 281.863,-182.302 277.441,-179.593 273.018,-176.988"/>
<polygon fill="none" stroke="black" points="274.442,-173.77 264.028,-171.823 270.955,-179.839 274.442,-173.77"/>
</g>
<!-- \\Radar\\Connect\\Connect -->
<g id="node4" class="node"><title>\\Radar\\Connect\\Connect</title>
<polygon fill="none" stroke="black" points="442,-230 378,-230 378,-194 442,-194 442,-230"/>
<text text-anchor="middle" x="410" y="-209.2" font-family="Courier,monospace" font-size="11.00">Connect</text>
</g>
<!-- \\Radar\\Connect\\TaxonomyTerm -->
<g id="node5" class="node"><title>\\Radar\\Connect\\TaxonomyTerm</title>
<polygon fill="none" stroke="black" points="286,-284 188,-284 188,-248 286,-248 286,-284"/>
<text text-anchor="middle" x="237" y="-263.2" font-family="Courier,monospace" font-size="11.00">TaxonomyTerm</text>
</g>
<!-- \\Radar\\Connect\\TaxonomyTerm&#45;&gt;\\Radar\\Connect\\Entity -->
<g id="edge3" class="edge"><title>\\Radar\\Connect\\TaxonomyTerm&#45;&gt;\\Radar\\Connect\\Entity</title>
<path fill="none" stroke="black" d="M187.695,-249.798C168.202,-243.26 145.695,-235.711 125.944,-229.087"/>
<polygon fill="none" stroke="black" points="126.791,-225.679 116.197,-225.818 124.565,-232.316 126.791,-225.679"/>
</g>
<!-- \\Radar\\Connect\\Location -->
<g id="node6" class="node"><title>\\Radar\\Connect\\Location</title>
<polygon fill="none" stroke="black" points="272.5,-230 201.5,-230 201.5,-194 272.5,-194 272.5,-230"/>
<text text-anchor="middle" x="237" y="-209.2" font-family="Courier,monospace" font-size="11.00">Location</text>
</g>
<!-- \\Radar\\Connect\\Location&#45;&gt;\\Radar\\Connect\\Entity -->
<g id="edge4" class="edge"><title>\\Radar\\Connect\\Location&#45;&gt;\\Radar\\Connect\\Entity</title>
<path fill="none" stroke="black" d="M201.461,-212C179.552,-212 150.811,-212 126.267,-212"/>
<polygon fill="none" stroke="black" points="126.036,-208.5 116.036,-212 126.036,-215.5 126.036,-208.5"/>
</g>
<!-- \\Radar\\Connect\\ListingsGroup -->
<g id="node7" class="node"><title>\\Radar\\Connect\\ListingsGroup</title>
<polygon fill="none" stroke="black" points="462,-176 358,-176 358,-140 462,-140 462,-176"/>
<text text-anchor="middle" x="410" y="-155.2" font-family="Courier,monospace" font-size="11.00">ListingsGroup</text>
</g>
<!-- \\Radar\\Connect\\ListingsGroup&#45;&gt;\\Radar\\Connect\\Node -->
<g id="edge5" class="edge"><title>\\Radar\\Connect\\ListingsGroup&#45;&gt;\\Radar\\Connect\\Node</title>
<path fill="none" stroke="black" d="M357.694,-158C330.957,-158 298.879,-158 274.664,-158"/>
<polygon fill="none" stroke="black" points="274.473,-154.5 264.473,-158 274.473,-161.5 274.473,-154.5"/>
</g>
<!-- \\Radar\\Connect\\Event -->
<g id="node8" class="node"><title>\\Radar\\Connect\\Event</title>
<polygon fill="none" stroke="black" points="437,-122 383,-122 383,-86 437,-86 437,-122"/>
<text text-anchor="middle" x="410" y="-101.2" font-family="Courier,monospace" font-size="11.00">Event</text>
</g>
<!-- \\Radar\\Connect\\Event&#45;&gt;\\Radar\\Connect\\Node -->
<g id="edge6" class="edge"><title>\\Radar\\Connect\\Event&#45;&gt;\\Radar\\Connect\\Node</title>
<path fill="none" stroke="black" d="M382.656,-112.319C353.45,-121.542 306.18,-136.47 273.672,-146.735"/>
<polygon fill="none" stroke="black" points="272.575,-143.411 264.093,-149.76 274.683,-150.086 272.575,-143.411"/>
</g>
<!-- \\Radar\\Connect\\Filter -->
<g id="node9" class="node"><title>\\Radar\\Connect\\Filter</title>
<polygon fill="none" stroke="black" points="438.5,-68 381.5,-68 381.5,-32 438.5,-32 438.5,-68"/>
<text text-anchor="middle" x="410" y="-47.2" font-family="Courier,monospace" font-size="11.00">Filter</text>
</g>
</g>
</svg>
