<?xml version="1.0" encoding="UTF-8" standalone="no"?>
<!DOCTYPE svg PUBLIC "-//W3C//DTD SVG 1.1//EN"
 "http://www.w3.org/Graphics/SVG/1.1/DTD/svg11.dtd">
<!-- Generated by graphviz version 2.34.0 (20141125.1709)
 -->
<!-- Title: G Pages: 1 -->
<svg width="518pt" height="466pt"
 viewBox="0.00 0.00 518.00 466.00" xmlns="http://www.w3.org/2000/svg" xmlns:xlink="http://www.w3.org/1999/xlink">
<g id="graph0" class="graph" transform="scale(1 1) rotate(0) translate(4 462)">
<title>G</title>
<polygon fill="white" stroke="white" points="-4,4 -4,-462 514,-462 514,4 -4,4"/>
<g id="clust1" class="cluster"><title>cluster_Global</title>
<path fill="none" stroke="gray" d="M20,-8C20,-8 490,-8 490,-8 496,-8 502,-14 502,-20 502,-20 502,-438 502,-438 502,-444 496,-450 490,-450 490,-450 20,-450 20,-450 14,-450 8,-444 8,-438 8,-438 8,-20 8,-20 8,-14 14,-8 20,-8"/>
<text text-anchor="middle" x="255" y="-437.2" font-family="Times,serif" font-size="11.00" fill="gray">Global</text>
</g>
<g id="clust2" class="cluster"><title>cluster_\Radar</title>
<path fill="none" stroke="gray" d="M28,-16C28,-16 482,-16 482,-16 488,-16 494,-22 494,-28 494,-28 494,-410 494,-410 494,-416 488,-422 482,-422 482,-422 28,-422 28,-422 22,-422 16,-416 16,-410 16,-410 16,-28 16,-28 16,-22 22,-16 28,-16"/>
<text text-anchor="middle" x="255" y="-409.2" font-family="Times,serif" font-size="11.00" fill="gray">Radar</text>
</g>
<g id="clust3" class="cluster"><title>cluster_\Radar\Connect</title>
<path fill="none" stroke="gray" d="M36,-24C36,-24 474,-24 474,-24 480,-24 486,-30 486,-36 486,-36 486,-382 486,-382 486,-388 480,-394 474,-394 474,-394 36,-394 36,-394 30,-394 24,-388 24,-382 24,-382 24,-36 24,-36 24,-30 30,-24 36,-24"/>
<text text-anchor="middle" x="255" y="-381.2" font-family="Times,serif" font-size="11.00" fill="gray">Connect</text>
</g>
<g id="clust4" class="cluster"><title>cluster_\Radar\Connect\Entity</title>
<path fill="none" stroke="gray" d="M44,-186C44,-186 466,-186 466,-186 472,-186 478,-192 478,-198 478,-198 478,-354 478,-354 478,-360 472,-366 466,-366 466,-366 44,-366 44,-366 38,-366 32,-360 32,-354 32,-354 32,-198 32,-198 32,-192 38,-186 44,-186"/>
<text text-anchor="middle" x="255" y="-353.2" font-family="Times,serif" font-size="11.00" fill="gray">Entity</text>
</g>
<!-- \\Radar\\Connect\\Entity\\Entity -->
<g id="node1" class="node"><title>\\Radar\\Connect\\Entity\\Entity</title>
<polygon fill="none" stroke="black" points="124,-284 40,-284 40,-248 124,-248 124,-284"/>
<text text-anchor="start" x="48" y="-269.2" font-family="Courier,monospace" font-size="11.00">«abstract»</text>
<text text-anchor="start" x="61.5" y="-257.2" font-family="Courier,monospace" font-size="11.00">Entity</text>
</g>
<!-- \\Radar\\Connect\\Entity\\Node -->
<g id="node2" class="node"><title>\\Radar\\Connect\\Entity\\Node</title>
<polygon fill="none" stroke="black" points="272,-230 218,-230 218,-194 272,-194 272,-230"/>
<text text-anchor="middle" x="245" y="-209.2" font-family="Courier,monospace" font-size="11.00">Node</text>
</g>
<!-- \\Radar\\Connect\\Entity\\Node&#45;&gt;\\Radar\\Connect\\Entity\\Entity -->
<g id="edge1" class="edge"><title>\\Radar\\Connect\\Entity\\Node&#45;&gt;\\Radar\\Connect\\Entity\\Entity</title>
<path fill="none" stroke="black" d="M217.774,-220.796C195.058,-228.415 161.549,-239.655 133.627,-249.02"/>
<polygon fill="none" stroke="black" points="132.378,-245.747 124.01,-252.245 134.604,-252.383 132.378,-245.747"/>
</g>
<!-- \\Radar\\Connect\\Entity\\Group -->
<g id="node3" class="node"><title>\\Radar\\Connect\\Entity\\Group</title>
<polygon fill="none" stroke="black" points="445,-338 391,-338 391,-302 445,-302 445,-338"/>
<text text-anchor="middle" x="418" y="-317.2" font-family="Courier,monospace" font-size="11.00">Group</text>
</g>
<!-- \\Radar\\Connect\\Entity\\Group&#45;&gt;\\Radar\\Connect\\Entity\\Node -->
<g id="edge2" class="edge"><title>\\Radar\\Connect\\Entity\\Group&#45;&gt;\\Radar\\Connect\\Entity\\Node</title>
<path fill="none" stroke="black" d="M390.871,-307.17C382.75,-302.918 373.868,-297.99 366,-293 332.221,-271.577 327.503,-260.852 294,-239 289.863,-236.302 285.441,-233.593 281.018,-230.988"/>
<polygon fill="none" stroke="black" points="282.442,-227.77 272.028,-225.823 278.955,-233.839 282.442,-227.77"/>
</g>
<!-- \\Radar\\Connect\\Entity\\TaxonomyTerm -->
<g id="node4" class="node"><title>\\Radar\\Connect\\Entity\\TaxonomyTerm</title>
<polygon fill="none" stroke="black" points="294,-338 196,-338 196,-302 294,-302 294,-338"/>
<text text-anchor="middle" x="245" y="-317.2" font-family="Courier,monospace" font-size="11.00">TaxonomyTerm</text>
</g>
<!-- \\Radar\\Connect\\Entity\\TaxonomyTerm&#45;&gt;\\Radar\\Connect\\Entity\\Entity -->
<g id="edge3" class="edge"><title>\\Radar\\Connect\\Entity\\TaxonomyTerm&#45;&gt;\\Radar\\Connect\\Entity\\Entity</title>
<path fill="none" stroke="black" d="M195.695,-303.798C176.202,-297.26 153.695,-289.711 133.944,-283.087"/>
<polygon fill="none" stroke="black" points="134.791,-279.679 124.197,-279.818 132.565,-286.316 134.791,-279.679"/>
</g>
<!-- \\Radar\\Connect\\Entity\\Location -->
<g id="node5" class="node"><title>\\Radar\\Connect\\Entity\\Location</title>
<polygon fill="none" stroke="black" points="280.5,-284 209.5,-284 209.5,-248 280.5,-248 280.5,-284"/>
<text text-anchor="middle" x="245" y="-263.2" font-family="Courier,monospace" font-size="11.00">Location</text>
</g>
<!-- \\Radar\\Connect\\Entity\\Location&#45;&gt;\\Radar\\Connect\\Entity\\Entity -->
<g id="edge4" class="edge"><title>\\Radar\\Connect\\Entity\\Location&#45;&gt;\\Radar\\Connect\\Entity\\Entity</title>
<path fill="none" stroke="black" d="M209.461,-266C187.552,-266 158.811,-266 134.267,-266"/>
<polygon fill="none" stroke="black" points="134.036,-262.5 124.036,-266 134.036,-269.5 134.036,-262.5"/>
</g>
<!-- \\Radar\\Connect\\Entity\\ListingsGroup -->
<g id="node6" class="node"><title>\\Radar\\Connect\\Entity\\ListingsGroup</title>
<polygon fill="none" stroke="black" points="470,-284 366,-284 366,-248 470,-248 470,-284"/>
<text text-anchor="middle" x="418" y="-263.2" font-family="Courier,monospace" font-size="11.00">ListingsGroup</text>
</g>
<!-- \\Radar\\Connect\\Entity\\ListingsGroup&#45;&gt;\\Radar\\Connect\\Entity\\Node -->
<g id="edge5" class="edge"><title>\\Radar\\Connect\\Entity\\ListingsGroup&#45;&gt;\\Radar\\Connect\\Entity\\Node</title>
<path fill="none" stroke="black" d="M365.694,-249.798C338.717,-241.279 306.303,-231.043 282.014,-223.373"/>
<polygon fill="none" stroke="black" points="283.062,-220.034 272.473,-220.36 280.954,-226.709 283.062,-220.034"/>
</g>
<!-- \\Radar\\Connect\\Entity\\Event -->
<g id="node7" class="node"><title>\\Radar\\Connect\\Entity\\Event</title>
<polygon fill="none" stroke="black" points="445,-230 391,-230 391,-194 445,-194 445,-230"/>
<text text-anchor="middle" x="418" y="-209.2" font-family="Courier,monospace" font-size="11.00">Event</text>
</g>
<!-- \\Radar\\Connect\\Entity\\Event&#45;&gt;\\Radar\\Connect\\Entity\\Node -->
<g id="edge6" class="edge"><title>\\Radar\\Connect\\Entity\\Event&#45;&gt;\\Radar\\Connect\\Entity\\Node</title>
<path fill="none" stroke="black" d="M390.656,-212C361.701,-212 314.993,-212 282.516,-212"/>
<polygon fill="none" stroke="black" points="282.093,-208.5 272.093,-212 282.093,-215.5 282.093,-208.5"/>
</g>
<!-- \\Radar\\Connect\\Connect -->
<g id="node8" class="node"><title>\\Radar\\Connect\\Connect</title>
<polygon fill="none" stroke="black" points="450,-176 386,-176 386,-140 450,-140 450,-176"/>
<text text-anchor="middle" x="418" y="-155.2" font-family="Courier,monospace" font-size="11.00">Connect</text>
</g>
<!-- \\Radar\\Connect\\Filter -->
<g id="node9" class="node"><title>\\Radar\\Connect\\Filter</title>
<polygon fill="none" stroke="black" points="446.5,-122 389.5,-122 389.5,-86 446.5,-86 446.5,-122"/>
<text text-anchor="middle" x="418" y="-101.2" font-family="Courier,monospace" font-size="11.00">Filter</text>
</g>
<!-- \\Radar\\Connect\\Cache -->
<g id="node10" class="node"><title>\\Radar\\Connect\\Cache</title>
<polygon fill="none" stroke="black" points="445,-68 391,-68 391,-32 445,-32 445,-68"/>
<text text-anchor="middle" x="418" y="-47.2" font-family="Courier,monospace" font-size="11.00">Cache</text>
</g>
</g>
</svg>
